<?xml version="1.0" standalone="no"?>
<!DOCTYPE svg PUBLIC "-//W3C//DTD SVG 20010904//EN"
 "http://www.w3.org/TR/2001/REC-SVG-20010904/DTD/svg10.dtd">
<svg version="1.0" xmlns="http://www.w3.org/2000/svg"
 width="460.000000pt" height="460.000000pt" viewBox="0 0 460.000000 460.000000"
 preserveAspectRatio="xMidYMid meet">
<metadata>
Created by potrace 1.11, written by Peter Selinger 2001-2013
</metadata>
<g transform="translate(0.000000,460.000000) scale(0.100000,-0.100000)"
fill="#000000" stroke="none">
<path d="M478 4585 c-128 -32 -246 -104 -331 -204 -57 -68 -121 -196 -136
-271 -7 -37 -10 -638 -10 -1805 -1 -1911 -4 -1817 57 -1947 69 -149 189 -258
358 -325 l69 -28 374 0 374 0 17 30 c9 17 61 116 115 220 54 105 114 222 135
260 21 39 90 174 155 300 65 127 122 234 126 240 16 17 10 24 -58 69 -254 167
-406 393 -479 711 -4 17 -8 102 -9 190 l-2 160 -69 7 c-38 4 -93 10 -123 12
-29 3 -61 8 -70 10 -9 3 -38 7 -66 11 -27 3 -95 15 -150 26 -343 71 -323 159
52 228 102 19 127 23 248 37 96 10 125 21 125 45 0 4 13 36 29 71 16 35 61
158 100 275 133 400 236 563 355 563 58 0 94 -26 238 -168 143 -140 200 -182
260 -189 65 -7 92 11 208 139 323 356 471 459 593 412 64 -24 214 -373 407
-944 34 -102 63 -186 64 -187 3 -3 55 -11 116 -18 30 -3 66 -8 80 -10 14 -2
45 -7 70 -10 81 -10 244 -47 293 -65 109 -42 124 -77 51 -117 -60 -33 -230
-76 -349 -88 -15 -2 -117 -17 -135 -20 -8 -2 -53 -6 -100 -10 -47 -4 -87 -8
-88 -10 -2 -2 -5 -79 -6 -172 -3 -146 -7 -180 -30 -261 -33 -118 -81 -223
-150 -327 -54 -80 -188 -223 -240 -254 -14 -9 -26 -19 -26 -23 0 -5 -4 -8 -9
-8 -11 0 -101 -59 -101 -65 0 -3 11 -24 24 -47 13 -24 59 -113 103 -198 44
-85 110 -211 145 -280 36 -69 107 -206 158 -305 51 -99 101 -193 110 -210 l17
-30 369 0 369 0 75 28 c165 61 281 163 355 312 70 141 66 12 63 1987 -3 1653
-4 1786 -20 1821 -9 20 -15 37 -13 37 2 0 -10 29 -28 64 -88 172 -244 293
-427 332 -97 20 -3547 19 -3632 -1z"/>
</g>
</svg>
